<svg width="1721" height="845" xmlns="http://www.w3.org/2000/svg"><defs><linearGradient x1="24.571%" y1="40.4424%" x2="59.3135%" y2="26.4394%" id="a"><stop stop-color="#FF6E00" offset="0%"/><stop stop-color="#FF9000" offset="100%"/></linearGradient></defs><g fill="none" fill-rule="evenodd"><g><g><path d="M557.362 0L276 162.445l775.4617 447.7123c4.956 2.8613 11.0627 2.8579 16.0154-.009l31.9238-18.4786c4.9527-2.8669 11.0595-2.8703 16.0154-.009l434.4628 250.8364c4.9514 2.8587 11.052 2.8581 16.0028-.0016l122.8461-70.9585c9.6-5.5 20.7-8.638 31.8-8.537V0H557.362z" fill="#F5F6F7"/><path d="M0 0v696c11.1 0 22-2.901 31.6-8.401l69.601-40.199 883.842-510.2714c3.8264-2.2091 5.1374-7.1018 2.9283-10.9282a8 8 0 00-2.9286-2.9285l-89.379-51.5966c-3.8265-2.209-5.1377-7.1016-2.9288-10.928a8 8 0 012.9252-2.9268L995.701 0H0z" fill="url(#a)"/></g></g></g></svg>