<?xml version="1.0" encoding="utf-8"?>
<!-- Generator: Adobe Illustrator 25.2.1, SVG Export Plug-In . SVG Version: 6.00 Build 0)  -->
<svg version="1.1" id="Layer_1" xmlns="http://www.w3.org/2000/svg" xmlns:xlink="http://www.w3.org/1999/xlink" x="0px" y="0px"
	 viewBox="0 0 1430.8 1458" style="enable-background:new 0 0 1430.8 1458;" xml:space="preserve">
<style type="text/css">
	.st0{opacity:0.39;fill:#FFFFFF;enable-background:new    ;}
	.st1{fill:none;stroke:#FFFFFF;stroke-miterlimit:10;}
	.st2{fill:#FFFFFF;}
</style>
<g>
	<path class="st2" d="M1308.9,725.9c-0.1,59.2-8.3,118.1-24.6,175.1l-0.1,0.3c-74.6,254.6-309.9,440.6-588.7,440.6
		c-221.6,0-415.9-117.6-523.6-293.8c-0.3-0.5-0.7-1.1-0.9-1.6l-0.3-0.4c-10.4-19.4,3.8-42.7,25.8-42.7c19.2,0.1,37.5,0.1,55.8-0.2
		c149.8-2.3,300,0.8,449.3-8.9c167.7-10.8,300.9-87.9,383.5-239.1c112.2-205.1,43.1-468.5-154.3-593l-0.3-0.2
		C1151.9,253.8,1307.8,471.6,1308.9,725.9z"/>
	<path class="st2" d="M790.9,609.2c-41.9,15.8-89.5,22.6-134.5,23c-131,1.2-289.6,0-434.1-1.1c-71.8-0.5-120.2-73.7-92.4-139.9
		c28.1-66.7,67.7-127.9,117-180.8c19.1-20.5,45.8-32.2,73.7-32.3c91.2-0.3,198,0.6,290.9,0.6h28l13.8-0.1h8.9h0.1l13.1-0.1l8.6-0.1
		c3.7,0,7.4-0.2,11-0.3c1.5-0.1,3.1-0.3,4.7-0.3l0.7-0.1c1.5-0.2,3-0.3,4.4-0.5c0.1,0,0.2,0,0.2,0l0,0c4.8-0.2,9.5-0.4,14.3-0.8
		c32.9-2.1,58.9-17.2,75.1-46.8c20.2-36.9,10.4-83.3-21.3-109.5c-1.7-1.4-3.4-2.7-5.1-3.9c1.4,0.3,2.6,0.7,3.9,1
		c6.3,1.6,12.5,3.4,18.6,5.4l0,0c85.1,27.5,140,86.1,162.2,174.6C986.2,431.5,920.5,560.3,790.9,609.2z"/>
</g>
</svg>
